<mxfile host="app.diagrams.net" modified="2022-07-27T02:57:56.982Z" agent="5.0 (Macintosh; Intel Mac OS X 10_15_7) AppleWebKit/605.1.15 (KHTML, like Gecko) Version/15.5 Safari/605.1.15" etag="j6fM0ji5XM3LXdoCxkVq" version="20.1.3" type="github">
  <diagram id="fzLIRdIsNyaRUNeQjyn1" name="第 1 页">
    <mxGraphModel dx="1426" dy="825" grid="1" gridSize="10" guides="1" tooltips="1" connect="1" arrows="1" fold="1" page="1" pageScale="1" pageWidth="827" pageHeight="1169" math="0" shadow="0">
      <root>
        <mxCell id="0" />
        <mxCell id="1" parent="0" />
        <mxCell id="VL1hjoEuvCKz8qf0Svru-1" value="" style="shape=ext;double=1;rounded=0;whiteSpace=wrap;html=1;fontSize=18;fillColor=#f5f5f5;fontColor=#333333;strokeColor=#666666;" vertex="1" parent="1">
          <mxGeometry x="80" y="150" width="610" height="490" as="geometry" />
        </mxCell>
        <mxCell id="VL1hjoEuvCKz8qf0Svru-2" value="RPC" style="text;strokeColor=none;fillColor=none;html=1;fontSize=24;fontStyle=1;verticalAlign=middle;align=center;" vertex="1" parent="1">
          <mxGeometry x="70" y="150" width="100" height="40" as="geometry" />
        </mxCell>
        <mxCell id="VL1hjoEuvCKz8qf0Svru-5" style="edgeStyle=orthogonalEdgeStyle;rounded=0;orthogonalLoop=1;jettySize=auto;html=1;exitX=0.5;exitY=1;exitDx=0;exitDy=0;entryX=0.5;entryY=0;entryDx=0;entryDy=0;fontFamily=Helvetica;fontSize=18;fontColor=#000000;" edge="1" parent="1" source="VL1hjoEuvCKz8qf0Svru-3" target="VL1hjoEuvCKz8qf0Svru-4">
          <mxGeometry relative="1" as="geometry" />
        </mxCell>
        <mxCell id="VL1hjoEuvCKz8qf0Svru-3" value="&lt;pre style=&quot;text-align: start;&quot;&gt;&lt;span style=&quot;background-color: rgb(255, 255, 255);&quot;&gt;&lt;font style=&quot;font-size: 18px;&quot; face=&quot;Helvetica&quot;&gt;GetObjectStorage&lt;/font&gt;&lt;/span&gt;&lt;/pre&gt;" style="shape=ext;double=1;rounded=1;whiteSpace=wrap;html=1;fontSize=18;" vertex="1" parent="1">
          <mxGeometry x="220" y="190" width="150" height="80" as="geometry" />
        </mxCell>
        <mxCell id="VL1hjoEuvCKz8qf0Svru-4" value="return Manager oss config" style="shape=ext;double=1;rounded=1;whiteSpace=wrap;html=1;fontSize=18;" vertex="1" parent="1">
          <mxGeometry x="180" y="300" width="230" height="80" as="geometry" />
        </mxCell>
        <mxCell id="VL1hjoEuvCKz8qf0Svru-10" style="edgeStyle=orthogonalEdgeStyle;rounded=0;orthogonalLoop=1;jettySize=auto;html=1;exitX=0.5;exitY=1;exitDx=0;exitDy=0;entryX=0.5;entryY=0;entryDx=0;entryDy=0;fontFamily=Helvetica;fontSize=18;fontColor=#000000;" edge="1" parent="1" source="VL1hjoEuvCKz8qf0Svru-6" target="VL1hjoEuvCKz8qf0Svru-7">
          <mxGeometry relative="1" as="geometry" />
        </mxCell>
        <mxCell id="VL1hjoEuvCKz8qf0Svru-6" value="&lt;pre style=&quot;text-align: start;&quot;&gt;&lt;span style=&quot;background-color: rgb(255, 255, 255);&quot;&gt;&lt;font style=&quot;font-size: 18px;&quot; face=&quot;Helvetica&quot;&gt;ListBuckets&lt;/font&gt;&lt;/span&gt;&lt;/pre&gt;" style="shape=ext;double=1;rounded=1;whiteSpace=wrap;html=1;labelBackgroundColor=#FFFFFF;fontFamily=Helvetica;fontSize=18;fontColor=#000000;" vertex="1" parent="1">
          <mxGeometry x="450" y="190" width="120" height="80" as="geometry" />
        </mxCell>
        <mxCell id="VL1hjoEuvCKz8qf0Svru-11" style="edgeStyle=orthogonalEdgeStyle;rounded=0;orthogonalLoop=1;jettySize=auto;html=1;exitX=0.5;exitY=1;exitDx=0;exitDy=0;entryX=0.5;entryY=0;entryDx=0;entryDy=0;fontFamily=Helvetica;fontSize=18;fontColor=#000000;" edge="1" parent="1" source="VL1hjoEuvCKz8qf0Svru-7" target="VL1hjoEuvCKz8qf0Svru-8">
          <mxGeometry relative="1" as="geometry" />
        </mxCell>
        <mxCell id="VL1hjoEuvCKz8qf0Svru-7" value="hit cache" style="shape=ext;double=1;rounded=1;whiteSpace=wrap;html=1;labelBackgroundColor=#FFFFFF;fontFamily=Helvetica;fontSize=18;fontColor=#000000;" vertex="1" parent="1">
          <mxGeometry x="450" y="300" width="120" height="80" as="geometry" />
        </mxCell>
        <mxCell id="VL1hjoEuvCKz8qf0Svru-12" style="edgeStyle=orthogonalEdgeStyle;rounded=0;orthogonalLoop=1;jettySize=auto;html=1;exitX=0.5;exitY=1;exitDx=0;exitDy=0;entryX=0.5;entryY=0;entryDx=0;entryDy=0;fontFamily=Helvetica;fontSize=18;fontColor=#000000;" edge="1" parent="1" source="VL1hjoEuvCKz8qf0Svru-8" target="VL1hjoEuvCKz8qf0Svru-9">
          <mxGeometry relative="1" as="geometry" />
        </mxCell>
        <mxCell id="VL1hjoEuvCKz8qf0Svru-8" value="oss/s3 client" style="shape=ext;double=1;rounded=1;whiteSpace=wrap;html=1;labelBackgroundColor=#FFFFFF;fontFamily=Helvetica;fontSize=18;fontColor=#000000;" vertex="1" parent="1">
          <mxGeometry x="450" y="410" width="120" height="80" as="geometry" />
        </mxCell>
        <mxCell id="VL1hjoEuvCKz8qf0Svru-9" value="&lt;pre style=&quot;text-align: start;&quot;&gt;&lt;font style=&quot;background-color: rgb(255, 255, 255); font-size: 18px;&quot; face=&quot;Helvetica&quot;&gt;ListBuckets&lt;/font&gt;&lt;/pre&gt;" style="shape=ext;double=1;rounded=1;whiteSpace=wrap;html=1;labelBackgroundColor=#FFFFFF;fontFamily=Helvetica;fontSize=18;fontColor=#000000;" vertex="1" parent="1">
          <mxGeometry x="450" y="520" width="120" height="80" as="geometry" />
        </mxCell>
      </root>
    </mxGraphModel>
  </diagram>
</mxfile>
